<svg width="154" height="52" viewBox="0 0 154 52" fill="none" xmlns="http://www.w3.org/2000/svg">
<g filter="url(#filter0_d_1_484)">
<path d="M5 24C5 35.5979 14.4021 45 26 45C37.5979 45 47 35.5979 47 24C47 12.4021 37.5979 3 26 3C14.4021 3 5 12.4021 5 24Z" fill="#01A022" stroke="white" stroke-width="2"/>
<mask id="mask0_1_484" style="mask-type:luminance" maskUnits="userSpaceOnUse" x="6" y="4" width="40" height="40">
<rect x="46" y="4" width="40" height="40" rx="20" transform="rotate(90 46 4)" fill="white"/>
</mask>
<g mask="url(#mask0_1_484)">
<mask id="mask1_1_484" style="mask-type:luminance" maskUnits="userSpaceOnUse" x="6" y="-8" width="40" height="55">
<rect x="46" y="-7.20117" width="53.3333" height="40" transform="rotate(90 46 -7.20117)" fill="white"/>
</mask>
<g mask="url(#mask1_1_484)">
<path d="M46.5333 54.3996L46.5333 -6.40039L5.99999 -6.40039L5.99999 54.3996L46.5333 54.3996Z" fill="#EF0000"/>
<path d="M33.0223 54.3996L33.0223 -6.40039L19.5112 -6.40039L19.5112 54.3996L33.0223 54.3996Z" fill="#F7FCFF"/>
</g>
</g>
</g>
<path d="M132 44.8609C143.57 44.8609 153 35.7408 153 24.4304C153 13.1201 143.57 4 132 4C120.43 4 111 13.1201 111 24.4304C111 35.7408 120.43 44.8609 132 44.8609Z" fill="white" stroke="white" stroke-width="2"/>
<mask id="mask2_1_484" style="mask-type:alpha" maskUnits="userSpaceOnUse" x="112" y="5" width="40" height="39">
<ellipse cx="132" cy="24.5" rx="20" ry="19.5" fill="#D9D9D9"/>
</mask>
<g mask="url(#mask2_1_484)">
<path d="M202.131 39.6663H93.1764C93.1764 42.0598 97.0159 44 101.752 44H193.556C198.292 44 202.131 42.0598 202.131 39.6663Z" fill="white"/>
<path d="M202.131 31.0004H93.1764V35.334H202.131V31.0004Z" fill="white"/>
<path d="M104.526 5C98.2577 5 93.1764 7.56778 93.1764 10.7353V26.667H202.13V22.3333H133.529V18.0003H202.13V13.6667H133.529V9.33368H202.13C202.13 6.94025 198.291 5 193.554 5H104.526Z" fill="white"/>
<path d="M202.13 9.33368H133.529V13.6667H202.13V9.33368Z" fill="#0038A8"/>
<path d="M202.13 18.0003H133.529V22.3333H202.13V18.0003Z" fill="#0038A8"/>
<path d="M202.13 26.667H93.1764V31.0004H202.131L202.13 26.667Z" fill="#0038A8"/>
<path d="M202.131 35.334H93.1764V39.6663H202.131V35.334Z" fill="#0038A8"/>
<path d="M111.098 18.471L109.58 19.0349C108.591 20.3234 108.758 21.0298 108.88 21.5455C108.979 21.9598 109.055 22.2876 108.54 22.7089C109.092 22.3826 109.213 21.9431 109.375 21.3596C109.574 20.6413 109.841 19.6756 111.098 18.471Z" fill="#FCD116"/>
<path d="M108.285 16.8422L106.472 16.6654C104.138 17.1943 103.346 17.731 102.71 18.1642C102.218 18.4982 101.828 18.7623 100.906 18.8671C101.72 18.8434 102.385 18.5807 103.262 18.2313C104.348 17.7988 105.81 17.216 108.285 16.8422Z" fill="#FCD116"/>
<path d="M108.828 16.9971L103.944 20.785L109.716 17.686C109.358 17.4834 109.056 17.2514 108.828 16.9971Z" fill="#FCD116"/>
<path d="M108.442 14.6227L107.387 13.8045C105.005 13.2804 103.743 13.365 102.728 13.4334C101.95 13.4859 101.335 13.5264 100.548 13.249C101.156 13.5452 101.976 13.6109 103.061 13.6976C104.399 13.8045 106.199 13.9477 108.442 14.6227Z" fill="#FCD116"/>
<path d="M108.623 14.9382L100.181 15.762H108.34C108.354 15.4741 108.453 15.1967 108.623 14.9382Z" fill="#FCD116"/>
<path d="M108.889 10.4164C109.695 10.9998 110.779 11.7845 111.475 13.1135L111.804 12.143C110.861 11.0047 109.883 10.5617 109.09 10.2018C108.427 9.90208 107.907 9.66451 107.704 9.14673C107.744 9.58625 108.236 9.9433 108.889 10.4164Z" fill="#FCD116"/>
<path d="M111.188 13.406L104.133 10.7836L109.904 13.8819C110.281 13.6897 110.715 13.5283 111.188 13.406Z" fill="#FCD116"/>
<path d="M115.608 13.1974L117.121 12.6348C118.099 11.3554 117.944 10.6762 117.818 10.1305C117.722 9.71265 117.648 9.38214 118.164 8.9587C117.613 9.28502 117.492 9.72454 117.33 10.308C117.131 11.0263 116.866 11.9927 115.608 13.1974Z" fill="#FCD116"/>
<path d="M113.486 8.76225V13.1427C114.022 13.1504 114.539 13.2028 115.02 13.2944L113.486 8.76225Z" fill="#FCD116"/>
<path d="M118.42 14.8259L120.184 14.9978C122.473 14.4744 123.285 13.9413 123.939 13.5115C124.455 13.1733 124.863 12.9064 125.797 12.8009C124.983 12.8254 124.321 13.0874 123.444 13.4368C122.357 13.8693 120.895 14.4514 118.42 14.8259Z" fill="#FCD116"/>
<path d="M117.878 14.6721L122.762 10.8842L116.992 13.9824C117.35 14.1851 117.65 14.4178 117.878 14.6721Z" fill="#FCD116"/>
<path d="M118.264 17.0455L119.315 17.8602C121.659 18.371 122.925 18.292 123.946 18.2278C124.738 18.1781 125.366 18.139 126.161 18.4192C125.553 18.1222 124.733 18.0573 123.646 17.9706C122.309 17.8637 120.507 17.7205 118.264 17.0455Z" fill="#FCD116"/>
<path d="M124.341 17.5081C123.424 17.3781 122.348 17.2251 121.052 16.5857L128.746 15.8346L120.65 15.0443C122.73 14.5321 123.542 13.9996 124.145 13.6034C124.804 13.1709 125.243 12.8865 126.885 12.8963L127.457 12.8998L126.947 12.7607C125.159 12.2737 124.351 12.526 123.327 12.846C122.508 13.1017 121.545 13.4022 119.787 13.442L124.238 9.99017L117.516 12.4889C118.355 11.2996 118.201 10.6184 118.085 10.1132C117.959 9.56394 117.883 9.23202 119.053 8.61921L119.463 8.4047L118.919 8.50042C117.014 8.83513 116.774 9.32076 116.471 9.93496C116.229 10.4269 115.944 11.0048 114.753 11.7007L113.354 7.56968L111.889 11.8985C110.965 10.8636 109.993 10.4227 109.264 10.0922C108.419 9.70997 107.862 9.45703 107.882 8.56891L107.888 8.26146L107.629 8.53536C106.722 9.49545 107.192 9.92938 107.788 10.4793C108.264 10.9188 108.824 11.4359 108.898 12.3799L102.469 9.99017L107.115 13.593C104.902 13.143 103.635 13.2282 102.696 13.2918C101.674 13.361 101.057 13.4022 99.9158 12.7747L99.5163 12.5546L99.6946 12.8467C100.318 13.8697 101.222 13.9982 102.366 14.1611C103.283 14.291 104.359 14.444 105.655 15.0834L97.9611 15.8346L106.005 16.62C103.884 17.1377 103.091 17.6758 102.503 18.0755C101.876 18.5017 101.459 18.7812 99.8234 18.7728L99.2508 18.7693L99.761 18.9084C100.482 19.1047 101.043 19.1809 101.524 19.1809C102.236 19.1809 102.771 19.0139 103.381 18.8231C104.2 18.5674 105.163 18.2669 106.923 18.2271L102.472 21.6789L109.187 19.1823C108.337 20.38 108.499 21.0606 108.618 21.5644C108.747 22.1087 108.825 22.4378 107.657 23.0499L107.247 23.2644L107.791 23.1687C109.696 22.834 109.935 22.3484 110.239 21.7341C110.481 21.2422 110.766 20.6643 111.956 19.9684L113.355 24.0994L114.822 19.7672C115.783 20.8991 116.781 21.3296 117.524 21.6489C118.322 21.992 118.849 22.2191 118.828 23.1002L118.821 23.4077L119.08 23.1338C119.987 22.1737 119.516 21.7397 118.922 21.1898C118.445 20.7503 117.886 20.2332 117.811 19.2892L124.24 21.6789L119.589 18.0713C121.768 18.5094 123.037 18.4297 123.979 18.3704C124.986 18.3068 125.65 18.2648 126.794 18.8944L127.193 19.1145L127.015 18.8224C126.392 17.7995 125.487 17.6709 124.343 17.5088L124.341 17.5081ZM113.353 18.3843C110.734 18.3843 108.603 17.2405 108.603 15.8339C108.603 14.4273 110.733 13.2834 113.353 13.2834C115.973 13.2834 118.103 14.4273 118.103 15.8339C118.103 17.2405 115.973 18.3843 113.353 18.3843ZM118.082 16.7297C118.253 16.4704 118.352 16.1937 118.365 15.9058H126.523L118.082 16.7297ZM123.939 13.5115C123.285 13.9413 122.473 14.4744 120.184 14.9978L118.42 14.8259C120.895 14.4514 122.357 13.8693 123.444 13.4368C124.321 13.0874 124.983 12.8254 125.797 12.8009C124.863 12.9064 124.455 13.1733 123.939 13.5115ZM117.878 14.6721C117.65 14.4178 117.35 14.1851 116.992 13.9824L122.762 10.8842L117.878 14.6721ZM117.821 10.1299C117.946 10.6757 118.1 11.3548 117.123 12.6343L115.611 13.1968C116.868 11.9921 117.136 11.0257 117.334 10.3074C117.495 9.72464 117.616 9.28442 118.168 8.9581C117.651 9.38085 117.724 9.71137 117.821 10.1299ZM113.487 8.76106L115.02 13.2944C114.539 13.2028 114.022 13.1504 113.486 13.1427L113.487 8.76106ZM109.091 10.2005C109.885 10.5604 110.862 11.0034 111.805 12.1416L111.476 13.1122C110.779 11.7832 109.695 10.9985 108.89 10.415C108.237 9.94195 107.746 9.5849 107.706 9.14538C107.908 9.66316 108.428 9.90073 109.091 10.2005ZM111.189 13.4043C110.715 13.5266 110.283 13.688 109.905 13.8808L104.135 10.7826L111.189 13.4043ZM102.728 13.4334C103.743 13.365 105.005 13.2804 107.387 13.8045L108.442 14.6227C106.199 13.9477 104.399 13.8045 103.061 13.6976C101.976 13.6109 101.156 13.5452 100.548 13.249C101.335 13.5264 101.95 13.4859 102.728 13.4334ZM108.623 14.9382C108.453 15.1967 108.354 15.4741 108.34 15.762H100.181L108.623 14.9382ZM102.71 18.1642C103.346 17.731 104.138 17.1943 106.472 16.6654L108.285 16.8422C105.81 17.2167 104.348 17.7981 103.262 18.2299C102.385 18.5793 101.721 18.842 100.906 18.8657C101.826 18.7609 102.218 18.4975 102.71 18.1628L102.71 18.1642ZM108.828 16.9971C109.056 17.2514 109.358 17.4834 109.716 17.686L103.944 20.785L108.828 16.9971ZM108.88 21.5455C108.758 21.0298 108.591 20.3234 109.58 19.0349L111.098 18.471C109.841 19.6756 109.572 20.6427 109.374 21.361C109.213 21.9438 109.092 22.384 108.54 22.7103C109.054 22.289 108.979 21.9612 108.88 21.5469L108.88 21.5455ZM113.22 22.9067L111.684 18.3738C112.167 18.4654 112.683 18.5185 113.22 18.5255V22.9067ZM117.688 21.5371C116.884 21.1912 115.887 20.7615 114.905 19.5156L115.231 18.5555C115.928 19.8845 117.012 20.67 117.818 21.2527C118.469 21.7237 118.957 22.08 119.002 22.5167C118.807 22.0199 118.313 21.8054 117.688 21.5371ZM115.518 18.2634C115.992 18.1411 116.424 17.9797 116.802 17.7876L122.572 20.8859L115.518 18.2634ZM123.946 18.2278C122.925 18.292 121.659 18.371 119.315 17.8602L118.264 17.0455C120.507 17.7205 122.309 17.8637 123.646 17.9706C124.733 18.0573 125.553 18.1222 126.161 18.4192C125.366 18.139 124.738 18.1781 123.946 18.2278Z" fill="#7B3F00"/>
<path d="M118.082 16.7297L126.525 15.906H118.367C118.353 16.1939 118.255 16.4713 118.084 16.7298L118.082 16.7297Z" fill="#FCD116"/>
<path d="M117.818 21.2527C117.012 20.67 115.928 19.8845 115.231 18.5555L114.905 19.5156C115.887 20.7615 116.884 21.1912 117.688 21.5371C118.313 21.8061 118.804 22.0188 118.999 22.5157C118.955 22.0789 118.466 21.7226 117.815 21.2516L117.818 21.2527Z" fill="#FCD116"/>
<path d="M115.518 18.2634L122.572 20.8859L116.802 17.7876C116.424 17.9797 115.992 18.1411 115.518 18.2634Z" fill="#FCD116"/>
<path d="M113.22 22.9067V18.5255C112.683 18.5185 112.167 18.4654 111.684 18.3738L113.22 22.9067Z" fill="#FCD116"/>
<path d="M111.017 15.0155C110.919 15.026 110.831 15.0399 110.751 15.0574C110.669 15.1287 110.598 15.2328 110.696 15.3306C110.824 15.367 110.958 15.3942 111.116 15.411C110.919 15.3257 110.814 15.1294 111.017 15.0155Z" fill="#FCD116"/>
<path d="M115.955 15.0574C115.875 15.0399 115.787 15.026 115.689 15.0155C115.892 15.1294 115.787 15.3257 115.592 15.411C115.749 15.3949 115.883 15.3677 116.011 15.3306C116.11 15.2328 116.037 15.1287 115.955 15.0574Z" fill="#FCD116"/>
<path d="M118.103 15.8339C118.103 14.4273 115.973 13.2834 113.353 13.2834C110.733 13.2834 108.603 14.4273 108.603 15.8339C108.603 17.2405 110.734 18.3843 113.353 18.3843C115.973 18.3843 118.103 17.2405 118.103 15.8339ZM115.173 14.4044C115.528 14.3807 116.549 14.5714 116.948 14.7859C116.637 14.9767 116.46 14.6427 115.35 14.6427C114.24 14.6427 114.063 15.0004 113.885 14.9285C113.708 14.8572 114.818 14.4282 115.173 14.4044ZM112.954 16.2156C112.866 16.4063 113.131 16.4063 113.354 16.4063C113.576 16.4063 113.842 16.4063 113.753 16.2156C113.842 16.3351 114.241 16.3351 114.241 16.2156C114.197 16.0723 114.064 16.0961 114.064 16.0011C114.464 16.0486 114.331 16.3588 114.686 16.3826C115.042 16.4063 115.219 16.6209 115.174 16.5971C114.952 16.5021 114.464 16.4301 114.108 16.4301C113.753 16.4301 113.665 16.5496 113.354 16.5496C113.043 16.5496 112.954 16.4301 112.599 16.4301C112.244 16.4301 111.756 16.5014 111.533 16.5971C111.489 16.6209 111.666 16.4063 112.021 16.3826C112.376 16.3588 112.244 16.0486 112.643 16.0011C112.643 16.0961 112.51 16.0723 112.466 16.2156C112.466 16.3351 112.866 16.3351 112.954 16.2156ZM109.758 14.7852C110.157 14.5707 111.178 14.38 111.533 14.4037C111.888 14.4275 112.998 14.8565 112.82 14.9278C112.643 14.999 112.465 14.642 111.355 14.642C110.245 14.642 110.069 14.976 109.758 14.7852ZM110.424 15.238C110.484 15.2611 110.543 15.282 110.601 15.3009C110.522 15.2247 110.556 15.1479 110.63 15.0871C110.377 15.1549 110.208 15.238 110.025 15.238C110.291 15.1667 110.601 14.8803 111.312 14.8803C112.022 14.8803 112.466 14.9278 112.51 15.2136V15.2373C112.259 15.115 112.138 15.0556 111.982 15.027C112.077 15.1786 111.763 15.3638 111.49 15.4281C111.978 15.4281 112.199 15.1423 112.378 15.2848C112.51 15.3799 111.845 15.5231 111.357 15.5231C110.869 15.5231 110.113 15.1185 110.424 15.238ZM113.354 17.7165C112.555 17.7165 113.131 17.6452 113.354 17.6452C113.576 17.6452 114.153 17.7165 113.354 17.7165ZM115.688 16.9919C114.295 17.314 114.447 17.43 113.354 17.43C112.26 17.43 112.413 17.314 111.019 16.9919C110.938 17.0506 110.886 17.0918 110.779 17.1917C110.824 17.0247 110.912 16.9535 111.267 16.8102C111.132 16.9101 111.084 16.9437 111.031 16.9828C111.089 16.987 111.146 16.9919 111.201 16.9975C111.69 16.9982 112.342 16.8109 112.643 16.8109C112.998 16.8109 113.087 16.8584 113.354 16.8584C113.62 16.8584 113.709 16.8109 114.064 16.8109C114.365 16.8109 115.017 16.9989 115.506 16.9975C115.561 16.9926 115.617 16.9877 115.677 16.9828L115.682 16.987C115.626 16.994 115.567 16.9975 115.506 16.9975C115.229 17.024 115.012 17.0583 114.813 17.0925C114.564 17.0827 114.222 17.0492 113.354 17.0492C112.486 17.0492 112.143 17.0827 111.895 17.0925C111.696 17.0583 111.478 17.024 111.201 16.9975C111.14 16.9975 111.08 16.994 111.025 16.987L111.031 16.9828C111.006 16.9807 110.982 16.9786 110.956 16.9772C110.979 16.9814 111.003 16.9842 111.025 16.987L111.02 16.9898C110.997 16.9849 110.981 16.9821 110.956 16.9772C110.979 16.9821 110.997 16.987 111.019 16.9919L111.02 16.9898C111.484 17.0855 111.648 17.1023 111.895 17.0925C112.315 17.1659 112.663 17.2393 113.354 17.2393C114.045 17.2393 114.392 17.1652 114.813 17.0925C115.06 17.1023 115.222 17.0862 115.686 16.9905L115.688 16.9919ZM115.688 16.9919C115.709 16.987 115.729 16.9821 115.751 16.9772C115.726 16.9828 115.709 16.9856 115.686 16.9905L115.682 16.987C115.705 16.9842 115.73 16.9814 115.751 16.9772C115.725 16.9786 115.701 16.9807 115.677 16.9828C115.623 16.9437 115.575 16.9101 115.44 16.8102C115.795 16.9535 115.884 17.0247 115.928 17.1917C115.821 17.0918 115.769 17.0506 115.688 16.9919ZM116.106 15.3002C116.165 15.2806 116.223 15.2604 116.283 15.2373C116.594 15.1178 115.839 15.5231 115.351 15.5231C114.863 15.5231 114.197 15.3799 114.33 15.2848C114.507 15.1416 114.729 15.4274 115.217 15.4281C114.943 15.3638 114.63 15.1786 114.725 15.027C114.57 15.0556 114.448 15.115 114.197 15.2373V15.2136C114.241 14.9278 114.685 14.8803 115.396 14.8803C116.106 14.8803 116.417 15.166 116.683 15.238C116.499 15.238 116.33 15.1549 116.077 15.0871C116.152 15.1479 116.186 15.2247 116.106 15.3002Z" fill="#FCD116"/>
<path d="M115.35 14.6427C116.46 14.6427 116.637 14.9767 116.948 14.7859C116.549 14.5714 115.528 14.3807 115.173 14.4044C114.818 14.4282 113.708 14.8572 113.885 14.9285C114.063 15.0004 114.24 14.6427 115.35 14.6427Z" fill="#7B3F00"/>
<path d="M115.396 14.8803C114.685 14.8803 114.241 14.9278 114.197 15.2136V15.2373C114.448 15.115 114.57 15.0556 114.725 15.027C114.63 15.1786 114.943 15.3638 115.217 15.4281C114.729 15.4274 114.507 15.1416 114.33 15.2848C114.197 15.3799 114.863 15.5231 115.351 15.5231C115.839 15.5231 116.594 15.1178 116.283 15.2373C116.223 15.2604 116.165 15.2806 116.106 15.3002C116.186 15.2247 116.152 15.1479 116.077 15.0871C116.33 15.1549 116.499 15.238 116.683 15.238C116.417 15.166 116.106 14.8803 115.396 14.8803ZM115.689 15.0155C115.787 15.026 115.875 15.0399 115.955 15.0574C116.037 15.1287 116.11 15.2328 116.011 15.3306C115.883 15.3677 115.749 15.3949 115.592 15.411C115.787 15.3257 115.892 15.1294 115.689 15.0155Z" fill="#7B3F00"/>
<path d="M112.466 16.2156C112.51 16.0723 112.643 16.0961 112.643 16.0011C112.244 16.0486 112.376 16.3588 112.021 16.3826C111.666 16.4063 111.489 16.6209 111.533 16.5971C111.756 16.5014 112.244 16.4301 112.599 16.4301C112.954 16.4301 113.043 16.5496 113.354 16.5496C113.665 16.5496 113.753 16.4301 114.108 16.4301C114.464 16.4301 114.952 16.5021 115.174 16.5971C115.219 16.6209 115.042 16.4063 114.686 16.3826C114.331 16.3588 114.464 16.0486 114.064 16.0011C114.064 16.0961 114.197 16.0723 114.241 16.2156C114.241 16.3351 113.842 16.3351 113.753 16.2156C113.842 16.4063 113.576 16.4063 113.354 16.4063C113.131 16.4063 112.866 16.4063 112.954 16.2156C112.866 16.3351 112.466 16.3351 112.466 16.2156Z" fill="#7B3F00"/>
<path d="M111.894 17.0937C112.143 17.0839 112.485 17.0504 113.353 17.0504C114.221 17.0504 114.563 17.0839 114.812 17.0937C115.011 17.0594 115.228 17.0252 115.506 16.9987C115.016 16.9994 114.364 16.8121 114.064 16.8121C113.708 16.8121 113.62 16.8596 113.353 16.8596C113.086 16.8596 112.998 16.8121 112.642 16.8121C112.342 16.8121 111.69 17.0001 111.201 16.9987C111.478 17.0252 111.695 17.0594 111.894 17.0937Z" fill="#7B3F00"/>
<path d="M115.677 16.9828C115.617 16.987 115.56 16.9931 115.506 16.9987C115.567 16.9987 115.627 16.994 115.682 16.987L115.677 16.9828Z" fill="#7B3F00"/>
<path d="M115.44 16.8102C115.575 16.9101 115.623 16.9437 115.677 16.9828C115.701 16.9807 115.725 16.9786 115.751 16.9772C115.729 16.9821 115.709 16.987 115.688 16.9919C115.769 17.0506 115.821 17.0918 115.928 17.1917C115.884 17.0247 115.795 16.9535 115.44 16.8102Z" fill="#7B3F00"/>
<path d="M114.813 17.0925C114.392 17.1652 114.045 17.2393 113.354 17.2393C112.663 17.2393 112.315 17.1659 111.895 17.0925C111.648 17.1023 111.485 17.087 111.022 16.9912L111.019 16.9919C110.997 16.987 110.979 16.9821 110.956 16.9772C110.981 16.9828 110.998 16.9864 111.022 16.9912L111.025 16.987C111.003 16.9842 110.979 16.9814 110.956 16.9772C110.982 16.9786 111.006 16.9807 111.031 16.9828L111.025 16.987C111.08 16.994 111.14 16.9975 111.201 16.9975C111.146 16.9919 111.089 16.987 111.031 16.9828C111.084 16.9437 111.132 16.9101 111.267 16.8102C110.912 16.9535 110.824 17.0247 110.779 17.1917C110.886 17.0918 110.938 17.0506 111.019 16.9919C112.413 17.314 112.26 17.43 113.354 17.43C114.447 17.43 114.295 17.314 115.688 16.9919L115.686 16.9905C115.222 17.0862 115.06 17.1023 114.813 17.0925Z" fill="#7B3F00"/>
<path d="M115.686 16.9905C115.709 16.9856 115.726 16.9828 115.751 16.9772C115.73 16.9814 115.705 16.9842 115.682 16.987L115.686 16.9905Z" fill="#7B3F00"/>
<path d="M112.821 14.9289C112.998 14.8577 111.889 14.4286 111.534 14.4049C111.178 14.3811 110.158 14.5719 109.758 14.7864C110.069 14.9772 110.246 14.6432 111.357 14.6432C112.467 14.6432 112.642 15.0009 112.821 14.9289Z" fill="#7B3F00"/>
<path d="M112.378 15.2848C112.199 15.1423 111.978 15.4281 111.49 15.4281C111.763 15.3638 112.077 15.1786 111.982 15.027C112.138 15.0556 112.259 15.115 112.51 15.2373V15.2136C112.466 14.9278 112.022 14.8803 111.312 14.8803C110.601 14.8803 110.291 15.1667 110.025 15.238C110.208 15.238 110.377 15.1549 110.63 15.0871C110.556 15.1479 110.522 15.2247 110.601 15.3009C110.543 15.282 110.484 15.2611 110.424 15.238C110.113 15.1185 110.867 15.5246 111.355 15.5246C111.843 15.5246 112.509 15.3814 112.375 15.2863L112.378 15.2848ZM110.696 15.3306C110.598 15.2328 110.669 15.1287 110.751 15.0574C110.831 15.0399 110.919 15.026 111.017 15.0155C110.814 15.1294 110.919 15.3257 111.116 15.411C110.958 15.3942 110.824 15.367 110.696 15.3306Z" fill="#7B3F00"/>
<path d="M113.354 17.7165C112.555 17.7165 113.131 17.6452 113.354 17.6452C113.576 17.6452 114.153 17.7165 113.354 17.7165Z" fill="#7B3F00"/>
</g>
<path d="M67.5 15.75L70.45 28.45H70.7L73.675 15.75H78.375L74.025 33H66.8L62.425 15.75H67.5ZM79.8713 21.05C79.8713 19.8833 80.163 18.8833 80.7463 18.05C81.3296 17.2 82.138 16.5583 83.1713 16.125C84.2046 15.675 85.3963 15.45 86.7463 15.45C88.2796 15.45 89.8296 15.7 91.3963 16.2V20.25C90.463 20 89.5296 19.7917 88.5963 19.625C87.6796 19.4583 86.9463 19.375 86.3963 19.375C85.3296 19.375 84.7963 19.75 84.7963 20.5C84.7963 20.8667 84.9296 21.1583 85.1963 21.375C85.463 21.5917 85.8963 21.8083 86.4963 22.025L88.5713 22.8C91.1213 23.7667 92.3963 25.4167 92.3963 27.75C92.3963 28.8833 92.113 29.875 91.5463 30.725C90.9796 31.5583 90.188 32.2 89.1713 32.65C88.1546 33.0833 86.9713 33.3 85.6213 33.3C84.638 33.3 83.588 33.2 82.4713 33C81.3546 32.7833 80.4463 32.5167 79.7463 32.2V27.925C80.6963 28.3583 81.7296 28.7083 82.8463 28.975C83.9796 29.2417 84.938 29.375 85.7213 29.375C86.2546 29.375 86.6796 29.2917 86.9963 29.125C87.313 28.9417 87.4713 28.6583 87.4713 28.275C87.4713 27.9417 87.3296 27.6583 87.0463 27.425C86.763 27.1917 86.288 26.9583 85.6213 26.725L83.7963 26.05C82.563 25.5833 81.5963 24.9583 80.8963 24.175C80.213 23.375 79.8713 22.3333 79.8713 21.05Z" fill="white"/>
<defs>
<filter id="filter0_d_1_484" x="0" y="0" width="52" height="52" filterUnits="userSpaceOnUse" color-interpolation-filters="sRGB">
<feFlood flood-opacity="0" result="BackgroundImageFix"/>
<feColorMatrix in="SourceAlpha" type="matrix" values="0 0 0 0 0 0 0 0 0 0 0 0 0 0 0 0 0 0 127 0" result="hardAlpha"/>
<feOffset dy="2"/>
<feGaussianBlur stdDeviation="2"/>
<feComposite in2="hardAlpha" operator="out"/>
<feColorMatrix type="matrix" values="0 0 0 0 0 0 0 0 0 0 0 0 0 0 0 0 0 0 0.08 0"/>
<feBlend mode="normal" in2="BackgroundImageFix" result="effect1_dropShadow_1_484"/>
<feBlend mode="normal" in="SourceGraphic" in2="effect1_dropShadow_1_484" result="shape"/>
</filter>
</defs>
</svg>
